<svg xmlns="http://www.w3.org/2000/svg" width="2000" height="491"><title>tutum-logo-white</title><g id="Page-1" fill="none"><g fill="#fff"><g id="Page-1"><g><g><g><path d="M602.4 203.9c1.68-9.76 2.73-19.75 2.73-30C605.13 77.86 527.5 0 431.73 0c-68.32 0-127.25 39.76-155.5 97.4-18.22-8.34-38.4-13.1-59.75-13.1-79.73 0-144.36 64.82-144.36 144.8 0 13.76 2.04 27.04 5.6 39.66C32.6 283.86 0 326.53 0 376.92c0 16.8 3.7 32.7 10.22 47.06L209.77 223.8l-33.54-32.42 125.4-19.3-19.56 121.6-31.87-30.8-204.6 205.2c19 14.33 42.55 22.92 68.14 22.92h36.22l311.27-312.24-33.54-32.42 125.4-19.3-19.56 121.6-31.88-30.8L229.34 491H360.2l154.12-154.6-33.54-32.4 125.4-19.3-19.56 121.6-31.87-30.8L439.6 491H576.1c79.74 0 144.36-64.83 144.36-144.8 0-70.96-50.93-129.9-118.1-142.3"/><path d="M785.38 305.1H756.8v-43.86h29.88v-60.38h53.68v60.38h50.2v43.87h-50.2v89.48c0 36.48 28.57 41.7 43.72 41.7 6.06 0 9.96-.88 9.96-.88v48.22s-6.93 1.3-16.9 1.3c-30.72 0-91.76-9.13-91.76-83.4v-96.4z"/><path d="M938.94 318.32c0-6.53-3.45-9.57-9.5-9.57H912.2v-47.02h52.2c20.25 0 28.88 9.14 28.88 29.16v102.3c0 27 6.9 45.27 34.07 45.27 39.68 0 61.67-35.26 61.67-74.88V261.72h54.77V427.6c0 6.08 3.44 9.56 9.5 9.56h17.23v46.58h-50.45c-18.98 0-28.9-9.14-28.9-24.8v-6.1c0-5.23.43-10.02.43-10.02h-.84c-10.36 23.08-37.97 46.15-75.92 46.15-47 0-75.9-23.95-75.9-84.45v-86.2z"/><path d="M1209.2 305.1h-28.58v-43.86h29.87v-60.38h53.66v60.38h50.2v43.87h-50.2v89.48c0 36.48 28.58 41.7 43.73 41.7 6.05 0 9.95-.88 9.95-.88v48.22s-6.93 1.3-16.9 1.3c-30.73 0-91.76-9.13-91.76-83.4v-96.4z"/><path d="M1368.8 318.32c0-6.53-3.44-9.57-9.48-9.57h-17.25v-47.02h52.17c20.28 0 28.9 9.14 28.9 29.16v102.3c0 27 6.9 45.27 34.08 45.27 39.66 0 61.65-35.26 61.65-74.88V261.72h54.8V427.6c0 6.08 3.43 9.56 9.47 9.56h17.25v46.58h-50.47c-18.97 0-28.9-9.14-28.9-24.8v-6.1c0-5.23.43-10.02.43-10.02h-.85c-10.35 23.08-37.94 46.15-75.9 46.15-47 0-75.9-23.95-75.9-84.45v-86.2z"/><path d="M1637.22 319.5c0-6.54-3.45-9.58-9.48-9.58h-17.26V262.9h50.47c19.4 0 28.9 9.14 28.9 24.8v6.54c0 4.8-.43 9.57-.43 9.57h.86c10.35-21.74 36.67-46.13 71.17-46.13 33.22 0 54.78 15.68 64.27 45.7h.87c11.63-23.93 40.1-45.7 75.05-45.7 45.7 0 72.03 26.13 72.03 84.46v86.63c0 6.1 3.45 9.57 9.5 9.57h16.8v46.58h-51.75c-20.7 0-29.34-8.7-29.34-29.6V352.6c0-25.25-4.75-44.4-30.2-44.4-27.18 0-46.6 23.06-52.62 50.92-2.6 8.7-3.45 17.85-3.45 28.3v97.5h-54.8V352.6c0-23.95-3.44-44.4-29.74-44.4-27.63 0-46.18 23.06-53.07 51.36-2.16 8.7-3.46 17.85-3.46 27.87v97.5h-54.35V319.5z"/></g></g></g></g></g></g></svg>